<?xml version="1.0" encoding="UTF-8"?>
<svg id="Layer_1" data-name="Layer 1" xmlns="http://www.w3.org/2000/svg" viewBox="0 0 200 200">
  <defs>
    <style>
      .cls-1 {
        fill: #fe9b44;
      }

      .cls-2 {
        fill: #000201;
      }

      .cls-3 {
        fill: #fdfdfd;
      }
    </style>
  </defs>
  <rect class="cls-1" width="200" height="200" rx="23.33" ry="23.33"/>
  <g>
    <circle class="cls-2" cx="44.99" cy="109.49" r="12.67"/>
    <circle class="cls-2" cx="155.01" cy="109.49" r="12.67"/>
  </g>
  <g>
    <path class="cls-3" d="M47.21,148.03s7.73,19.78,12.73,19.33,7.96-20.92,7.96-20.92l-20.69,1.59Z"/>
    <path class="cls-3" d="M67.97,146.51s7.73,19.78,12.73,19.33,7.96-20.92,7.96-20.92l-20.69,1.59Z"/>
    <path class="cls-3" d="M88.9,144.84s7.73,19.78,12.73,19.33,7.96-20.92,7.96-20.92l-20.69,1.59Z"/>
    <path class="cls-3" d="M110.73,143.02s7.73,19.78,12.73,19.33,7.96-20.92,7.96-20.92l-20.69,1.59Z"/>
    <path class="cls-3" d="M132.1,141.36s7.73,19.78,12.73,19.33,7.96-20.92,7.96-20.92l-20.69,1.59Z"/>
  </g>
</svg>