<?xml version="1.0" encoding="UTF-8"?>
<svg id="Layer_1" data-name="Layer 1" xmlns="http://www.w3.org/2000/svg" viewBox="0 0 200 200">
  <defs>
    <style>
      .cls-1 {
        fill: #8394c9;
      }

      .cls-2 {
        fill: #fdfdfd;
      }
    </style>
  </defs>
  <rect class="cls-1" width="200" height="200" rx="23.33" ry="23.33"/>
  <g>
    <g>
      <circle class="cls-2" cx="132.53" cy="89.55" r="32.51"/>
      <circle cx="132.53" cy="89.55" r="8.29"/>
    </g>
    <path class="cls-2" d="M64.85,93.71h17.75c.01.09.01.18.01.27,0,13.16-10.67,23.83-23.83,23.83s-23.82-10.67-23.82-23.83c0-.09,0-.18,0-.27h29.88Z"/>
    <path d="M64.85,93.71c.01.09.01.18.01.27,0,3.36-2.72,6.08-6.08,6.08s-6.07-2.72-6.07-6.08c0-.09,0-.18,0-.27h12.13Z"/>
  </g>
  <g>
    <polygon class="cls-2" points="30.47 152.27 34.41 131.25 49.24 156.21 36.29 154.17 30.47 152.27"/>
    <polygon class="cls-2" points="169.53 141.76 159.8 122.71 154.55 147.58 169.53 141.76"/>
    <path d="M30.47,152.27s26.65,7.88,70.2,4.32,68.86-14.83,68.86-14.83c0,0-22.49,14.83-68.48,18.39-45.99,3.57-70.58-7.88-70.58-7.88Z"/>
  </g>
</svg>