<?xml version="1.0" encoding="UTF-8"?>
<svg id="Layer_1" data-name="Layer 1" xmlns="http://www.w3.org/2000/svg" viewBox="0 0 200 200">
  <defs>
    <style>
      .cls-1 {
        fill: #3cb878;
      }

      .cls-2 {
        fill: #fff;
      }

      .cls-3 {
        fill: #10282e;
      }

      .cls-4 {
        fill: #efd464;
      }
    </style>
  </defs>
  <rect class="cls-1" width="200" height="200" rx="23.33" ry="23.33"/>
  <g>
    <circle class="cls-3" cx="39.79" cy="91.56" r="9.57"/>
    <circle class="cls-3" cx="160.21" cy="91.56" r="9.57"/>
  </g>
  <g>
    <ellipse class="cls-4" cx="100" cy="139.21" rx="72.18" ry="44.51"/>
    <ellipse class="cls-3" cx="96.62" cy="98.98" rx="25.96" ry="9.57"/>
  </g>
  <path class="cls-2" d="M78.9,132.68h18.94v22.19c0,2.51-2.04,4.55-4.55,4.55h-9.84c-2.51,0-4.55-2.04-4.55-4.55v-22.19h0Z" transform="translate(13.17 -7.2) rotate(5.04)"/>
  <path class="cls-2" d="M101.56,132.68h17.29v18.14c0,2.18-1.77,3.95-3.95,3.95h-9.38c-2.18,0-3.95-1.77-3.95-3.95v-18.14h0Z" transform="translate(-14.34 12.23) rotate(-5.96)"/>
  <path d="M181.36,143.35s-29.76-9-79.36-9.16c-49.6-.16-78.97,7.87-78.97,7.87,0,0,26.39-11.4,78.76-11.05,52.37.35,79.58,12.34,79.58,12.34Z"/>
</svg>