<?xml version="1.0" encoding="UTF-8"?>
<svg id="Layer_1" data-name="Layer 1" xmlns="http://www.w3.org/2000/svg" viewBox="0 0 200 200">
  <defs>
    <style>
      .cls-1 {
        fill: #0d2927;
      }

      .cls-2 {
        fill: #ff5867;
      }

      .cls-3 {
        fill: #ffd8a3;
      }

      .cls-4 {
        fill: #ff3653;
      }
    </style>
  </defs>
  <rect class="cls-2" width="200" height="200" rx="23.33" ry="23.33"/>
  <path class="cls-3" d="M182.09,71.22c0,21.22-36.75,38.43-82.09,38.43S17.91,92.44,17.91,71.22c0-13.98,15.96-26.22,39.81-32.94,4.65,6.45,14.93,16.58,36.48,23.93,0,0-4.9-13.67-1.8-23.98,0,0,13.93,11.08,39.46,13.92,0,0-1.91-8.69-1.6-16.65,30.37,5.64,51.84,19.51,51.84,35.72Z"/>
  <circle class="cls-1" cx="48.94" cy="66.46" r="10.32"/>
  <circle class="cls-1" cx="151.07" cy="66.46" r="10.32"/>
  <ellipse class="cls-4" cx="99.43" cy="89.93" rx="15.67" ry="2.73"/>
</svg>