<?xml version="1.0" encoding="UTF-8"?>
<svg id="Layer_1" data-name="Layer 1" xmlns="http://www.w3.org/2000/svg" viewBox="0 0 200 200">
  <defs>
    <style>
      .cls-1 {
        fill: #f75782;
      }

      .cls-2 {
        fill: #2d2723;
      }

      .cls-3 {
        fill: #fff;
      }

      .cls-4 {
        fill: #000201;
      }

      .cls-5 {
        fill: #998575;
      }
    </style>
  </defs>
  <path class="cls-5" d="M200,23.32v153.35c0,12.89-10.45,23.33-23.33,23.33H23.32c-12.88,0-23.32-10.44-23.32-23.33V23.32C0,10.44,10.44,0,23.32,0h153.35c12.88,0,23.33,10.44,23.33,23.32Z"/>
  <g>
    <circle class="cls-4" cx="44.98" cy="89.49" r="12.67"/>
    <circle class="cls-4" cx="155.01" cy="89.49" r="12.67"/>
  </g>
  <path class="cls-2" d="M200,100.97v75.7c0,12.89-10.45,23.33-23.33,23.33H23.32c-12.88,0-23.32-10.44-23.32-23.33v-29.94l72.28-16.54,27.09-6.2h.01l27.94-6.39,72.68-16.63Z"/>
  <path class="cls-3" d="M72.28,130.19l27.09-6.2c-.31,6.45-2.28,22.91-14.3,22.23-9.34-.52-12.06-9.44-12.79-16.03Z"/>
  <path class="cls-3" d="M110.98,146.79c-10.4-.32-11.55-16.45-11.6-22.8l27.94-6.39c.11,1.89,1.52,29.73-16.34,29.19Z"/>
  <path class="cls-1" d="M28.62,198.03s18.02-23.65,73.77-21.96,69.26,22.52,69.26,22.52l-143.31,1.41.28-1.97Z"/>
</svg>